<?xml version="1.0" encoding="UTF-8"?>
<svg viewBox="0 0 1024 1536" xmlns="http://www.w3.org/2000/svg">

  <!-- OUTER zone: Bolsters + Headrest + Frame -->
  <g id="zone-outer" data-zone="Outer (Bolsters &amp; Headrest)">
    <path transform="translate(480,198)" d="m0 0h44l27 2 25 4 13 3 13 4 14 8 8 8 2 1 6 11 8 15 6 17 6 25 7 41 2 17v25l8 29 4 15 11 36 13 31 17 35 10 19 11 21 13 28 9 23 8 24 8 32 5 30 3 24 2 29 1 20v85l-2 21-4 18-7 14-9 10-6 2v13l-3 13 3 1 6 9 4 7v2h4l-2-2 1-6 2-1 1 2 3-4 8-2h8l7-2h25l6 8 3 13v26l-4 3-5 1-2 7-2 4 4 2 14 14 13 17 8 14 8 22 3 13 2 19v16l-3 34-5 30-5 21-6 18-5 12-9 17-12 16-9 10-4 1v2l-5 3h-2l2 9-2 9h-2l-2 6-4 6h-2v2l-18 9v18l-4 6-9 7-5 1-13 1h-16l-31-2-16-2-2-2v-9l1-1h29l36 3h12l8-2-1-8-2 1h-10l-11-3-22 3-33 1-36-2h-233l-115-2-18-1-22-4-9-3-7-1-19-7-10-5-5-5v-2h-2l-4-8-3-9-1-7v-14l4-9h-2l-3-6-8-13-6-12-8-22-3-7-6-26-2-10-3-27-1-17v-39l3-19 4-13 6-15 8-14 11-13 14-14 8-7 10-8h2l-1-9-4-5-1-3-1-45-3-4-3-12-1-8v-34l3-13 5-9 7-8h2v-82l2-33 4-34 5-29 7-29 8-27 12-29 13-27 8-16 14-29 11-26 6-18 15-52 8-31 1-4-1-1v-15l5-39 6-38 6-23 5-12 6-11 5-6 3-5 7-6 12-7 15-5 14-3 31-4z" fill="none" stroke="#ff0000" stroke-width="2" opacity="0.82"/>
    <path transform="translate(235,843)" d="m0 0h1l3 20v11l-1 5v23l-1 3-2 35-1 28h19l-1 8 8-5h2v-15h1l1 12 12-6 10-1 2-1 19-1 21-3h15l13 4-2 6-5 18-3 12-7 32-5 7-16 32-10 21-6 17-5 14-12 24-3 19-2 26-1 34 2 34 5 28 5 16 4 8 4 5 5 2 12 2 73 2 79 1h163l62-3 28-1 14-1 5-3 5-6 5-14 5-21 3-22 1-19v-23l-1-16-3-25-4-15-3-7-7-11-8-12-7-15-10-19-6-9-4-7-10-14-10-15-10-14-4-9-4-13-7-23-5-12-1-6 1-5 10-2h13l24 2 6 1 20 1 5 1 3-1 7 3 5 2 3 1-1-17 2-4v4l3 1 6 9 4 7v2h4l-2-2 1-6 2-1 1 2 3-4 8-2h8l7-2h25l6 8 3 13v26l-4 3-5 1-2 7-2 4 4 2 14 14 13 17 8 14 8 22 3 13 2 19v16l-3 34-5 30-5 21-6 18-5 12-9 17-12 16-9 10-4 1v2l-5 3h-2l2 9-2 9h-2l-2 6-4 6h-2v2l-18 9v18l-4 6-9 7-5 1-13 1h-16l-31-2-16-2-2-2v-9l1-1h29l36 3h12l8-2-1-8-2 1h-10l-11-3-22 3-33 1-36-2h-233l-115-2-18-1-22-4-9-3-7-1-19-7-10-5-5-5v-2h-2l-4-8-3-9-1-7v-14l4-9h-2l-3-6-8-13-6-12-8-22-3-7-6-26-2-10-3-27-1-17v-39l3-19 4-13 6-15 8-14 11-13 14-14 8-7 10-8h2l-1-9-4-5-1-3-1-45-3-4-3-12-1-8v-34l3-13 4-7 4-2z" fill="none" stroke="#ff0000" stroke-width="2" opacity="0.82"/>
  </g>

  <!-- INSERT zone: Back Insert + Seat Cushion Insert -->
  <g id="zone-insert" data-zone="Inserts (Center Panels)">
    <path transform="translate(456,512)" d="m0 0h70l37 1 20 2 13 4 10 7 10 13 10 18 4 9 4 11 5 11 6 18 5 23 3 15 4 35 2 27 1 44v88l-2 43v14l-3 36-2 15-1 3-5 3-203-1-73-1-13-2-1-3-2-24-1-37-1-5v-16l-1-22v-71l1-23 1-52 2-27 3-26 4-20 4-16 4-13 8-20 7-15 8-15 7-11 9-10 6-4 10-3 15-2z" fill="none" stroke="#0000ff" stroke-width="2" opacity="0.82"/>
    <path transform="translate(388,953)" d="m0 0h229l29 2 5 4 8 16 13 39 4 13 9 12 10 15 15 21 6 11 6 10 8 16 4 9 8 12 9 14 4 17 2 8 2 19 1 16v23l-1 19-4 28-6 22-5 10-6 6-3 1-14 1-90 4h-163l-79-1-73-2-15-3-5-4-3-4-5-14-3-9-5-28-2-36 1-32 3-35 3-12 8-16 5-12 5-15 5-12 10-21 8-16 10-19 2-2 7-32 4-16 4-14 5-8 8-3z" fill="none" stroke="#0000ff" stroke-width="2" opacity="0.82"/>
  </g>

</svg>
